<svg width="26" height="22" viewBox="0 0 26 22" fill="none" xmlns="http://www.w3.org/2000/svg">
<path d="M20 1.99979L20 19.9998C19.9995 20.5301 19.7886 21.0385 19.4136 21.4134C19.0387 21.7884 18.5303 21.9993 18 21.9998L14 21.9998C13.4697 21.9993 12.9613 21.7884 12.5864 21.4134C12.2114 21.0385 12.0005 20.5301 12 19.9998L12 1.99979C12.0005 1.46952 12.2114 0.961118 12.5864 0.58616C12.9613 0.211202 13.4697 0.000317938 14 -0.000212328L18 -0.000212503C18.5303 0.000317717 19.0387 0.211202 19.4136 0.58616C19.7886 0.961118 19.9995 1.46952 20 1.99979ZM14 19.9998L18 19.9998L18 1.99979L14 1.99979L14 19.9998ZM14 1.99979L14 19.9998C13.9995 20.5301 13.7886 21.0384 13.4136 21.4134C13.0387 21.7883 12.5303 21.9992 12 21.9998L8 21.9998C7.46973 21.9992 6.96133 21.7883 6.58637 21.4134C6.21141 21.0384 6.00053 20.53 6 19.9998L6 1.99977C6.00053 1.4695 6.21141 0.961097 6.58637 0.586139C6.96133 0.211181 7.46973 0.000299127 8 -0.000231139L12 -0.000231314C12.5303 0.000298906 13.0387 0.211181 13.4136 0.586139C13.7886 0.961097 13.9995 1.46952 14 1.99979ZM8 19.9998L12 19.9998L12 1.99979L8 1.99977L8 19.9998ZM8 1.99977L8 19.9998C7.99947 20.53 7.78859 21.0384 7.41363 21.4134C7.03867 21.7883 6.53027 21.9992 6 21.9998L2 21.9998C1.46973 21.9992 0.961329 21.7883 0.586371 21.4134C0.211413 21.0384 0.000529412 20.53 -8.74331e-08 19.9998L-8.74238e-07 1.99977C0.000528579 1.4695 0.211412 0.961098 0.58637 0.58614C0.961328 0.211182 1.46973 0.000299389 2 -0.000230877L6 -0.000231051C6.53027 0.000299168 7.03867 0.211181 7.41363 0.586139C7.78859 0.961097 7.99947 1.4695 8 1.99977ZM2 19.9998L6 19.9998L6 1.99977L2 1.99977L2 19.9998Z" fill="white"/>
<path d="M26 2.00001L26 20C25.9995 20.5303 25.7886 21.0387 25.4136 21.4136C25.0387 21.7886 24.5303 21.9995 24 22L20 22C19.4697 21.9995 18.9613 21.7886 18.5864 21.4136C18.2114 21.0387 18.0005 20.5301 18 19.9998L18 1.99979C18.0005 1.46952 18.2114 0.961339 18.5864 0.586381C18.9613 0.211423 19.4697 0.000540836 20 1.05699e-05L24 1.0395e-05C24.5303 0.000540615 25.0387 0.211423 25.4136 0.586381C25.7886 0.961339 25.9995 1.46974 26 2.00001ZM20 19.9998L24 20L24 2.00001L20 1.99979L20 19.9998Z" fill="white"/>
</svg>
